<svg width="586" height="217" viewBox="0 0 586 217" fill="none" xmlns="http://www.w3.org/2000/svg">
<path d="M448.321 0.0871442C449.725 0.00767016 451.136 -0.0174529 452.54 0.0118089C490.756 0.88825 529.605 15.0976 555.498 43.5367C574.056 63.9208 585.815 90.0265 585.04 117.713C584.545 141.516 574.423 164.101 556.984 180.303C525.27 210.206 480.477 217.447 438.421 216.25C421.528 215.769 417.142 207.602 407.114 195.82L329.353 105.943C325.504 101.483 321.645 96.6805 317.617 92.4014C318.062 97.7165 317.811 107.088 317.811 112.721L317.795 149.76L317.836 177.658C317.852 182.412 318.106 190.047 317.548 194.536C316.692 201.025 313.278 206.903 308.071 210.864C304.297 213.782 299.839 215.724 295.053 215.967C287.018 216.373 278.924 216.203 270.873 216.202L180.112 216.213C167.72 216.222 152.313 218.393 143.204 208.432C139.491 204.371 135.977 199.913 132.483 195.643L73.0988 123.232C65.6173 114.12 57.1945 104.237 50.0702 94.9415C50.0952 95.3523 50.1109 95.7641 50.1169 96.1759L50.1322 179.494C50.1335 184.728 50.5363 190.237 49.2093 195.306C49.0169 196.042 48.5401 196.432 48.0416 196.963C44.632 200.594 40.0355 200.521 35.4966 200.405C28.3986 200.224 21.4419 200.392 14.3564 200.386C10.4157 200.385 5.66306 200.43 2.65463 197.392C-0.284181 194.425 0.154373 189.618 0.106411 185.793C0.0901726 181.065 0.123118 176.366 0.141958 171.652L0.134905 40.3866C0.135218 29.4682 -1.33395 18.88 5.41698 9.67368C12.8 -0.394687 29.4327 -2.40707 39.3104 4.74183C44.6404 8.59918 50.4883 16.6266 54.783 21.8789L118.084 99.0484C121.305 103.024 124.439 107.108 127.865 110.892C129.885 113.124 134.132 119.324 136.2 120.924C136.422 120.24 136.227 115.017 136.224 113.907L136.204 34.1949C136.203 29.4083 135.983 24.8239 136.832 20.0869C139.134 8.098 148.86 0.448853 161.043 0.339866C172.428 0.238061 183.211 8.07447 185.53 19.4684C186.692 25.1765 186.216 33.2264 186.209 39.2497L186.175 67.6462C186.167 100.343 186.508 133.538 186.15 166.191C195.23 165.917 206.09 166.207 215.267 166.209L267.696 166.135C267.187 159.373 267.521 148.622 267.519 141.465L267.51 49.7889C267.508 41.4997 267.522 33.4522 267.712 24.8594C268.195 2.91085 293.451 -7.10203 309.504 6.8579C313.576 10.3994 318.306 16.497 322.059 20.8565L411.378 124.289C411.227 122.856 411.19 120.857 411.186 119.385C411.114 98.2462 411.177 77.0877 411.158 55.9499L411.136 36.0036C411.124 25.6572 410.284 15.9021 418.02 7.74328C426.233 -0.918607 437.437 0.245998 448.321 0.0871442ZM433.346 19.1275C428.189 22.9967 429.7 27.6739 429.719 33.6567L429.71 123.494C429.729 132.164 430.092 141.535 429.34 150.158C428.954 154.591 423.258 158.71 418.882 157.62C413.422 156.293 407.779 148.056 404.224 143.946C398.265 137.135 392.346 130.285 386.475 123.397L331.46 59.9101L310.723 35.8938C306.808 31.3556 302.984 26.6957 298.893 22.3227C297.235 20.551 295.313 18.7599 292.755 18.6689C284.231 18.3666 286.056 32.3043 286.059 37.8885L286.056 146.142L286.087 165.579C286.087 168.319 286.235 174.594 285.742 177.029C285.269 179.347 283.94 181.4 282.023 182.784C278.529 185.356 260.222 184.466 255.302 184.459L216.379 184.441L190.065 184.46C184.247 184.464 172.83 185.869 169.669 180.463C166.921 175.764 167.756 165.395 167.758 159.808L167.771 31.413C167.77 29.1633 168.072 25.7755 167.652 23.6996C166.209 16.5682 155.748 17.0337 154.86 24.2447C154.49 27.5271 154.672 31.0357 154.695 34.3433C154.75 40.0498 154.769 45.7569 154.752 51.4637L154.746 123.305C154.747 128.726 154.667 134.329 154.754 139.729C154.886 147.926 155.068 154.341 145.285 156.293C143.228 155.63 140.492 154.868 139.007 153.279C135.53 149.557 132.197 145.301 128.971 141.347L49.5655 44.5501C42.9727 36.5346 36.1487 27.3951 28.8246 20.0426C26.7632 17.9733 22.1952 18.4121 20.4457 20.9901C17.1827 26.999 18.7824 40.7191 18.7401 47.4508L18.698 169.576C18.6971 172.987 18.872 178.908 18.5181 182.122C22.014 182.084 28.6061 181.812 31.8609 182.074C31.3581 175.918 31.6255 166.179 31.6286 159.807L31.6518 86.9247C31.649 81.4199 31.4553 75.8881 31.7283 70.3465C31.9675 65.4846 34.633 61.0602 39.9467 60.6214C46.9699 60.0412 51.6397 68.0395 55.7572 73.104L145.942 183.038C147.945 185.493 156.583 196.9 158.768 197.28C164.799 198.328 173.394 197.971 179.705 197.973L264.703 197.971C274.179 197.968 285.172 198.217 294.551 197.872C296.31 196.657 298.686 194.691 298.971 192.491C299.457 188.774 299.319 184.509 299.313 180.733L299.297 92.2913C299.294 83.7122 298.887 74.6448 299.808 66.0996C300.617 58.5766 310.601 56.2827 315.636 62.1015C318.551 65.4708 321.764 69.0829 324.72 72.467L412.168 173.513C416.108 178.026 430.202 195.43 434.127 197.719C470.236 200.227 511.348 194.043 540.122 170.148C576.715 139.76 573.012 90.5026 542.771 56.9109C521.088 32.8259 489.565 20.4478 457.427 18.6504C452.913 18.4074 443.327 18.121 438.891 18.5777C437.089 18.7304 435.117 18.8593 433.346 19.1275Z" fill="#F5A623"/>
<path d="M450.098 32.0196C454.095 31.5112 462.609 32.4113 466.744 32.9758C494.499 36.7654 521.608 49.2401 538.74 72.0624C549.483 86.3759 555.693 104.308 553.107 122.335C550.42 141.07 541.571 153.595 526.649 164.656C519.342 169.645 512.474 173.294 504.132 176.147C490.38 180.867 475.9 183.471 461.38 184.129C456.487 184.35 449.252 185.937 445.478 181.727C444.75 180.883 443.333 178.658 443.195 177.524C442.525 172.008 442.738 165.774 442.738 160.229L442.728 72.96C442.732 62.6989 442.647 52.4285 442.835 42.1709C442.938 36.5785 444.631 33.6931 450.098 32.0196ZM517.339 148.435C520.301 145.976 522.671 144.045 525.182 141.088C540.665 122.845 536.687 97.9118 522.016 80.5859C507.584 63.5426 486.847 54.4483 465.082 51.2859C463.813 51.1015 462.358 50.9299 461.117 50.6668C461.612 88.9658 460.615 127.748 461.299 165.986C463.85 165.546 466.195 165.449 468.734 165.154C482.816 163.515 497.12 160.304 509.599 153.35C512.289 151.852 514.74 150.078 517.339 148.435Z" fill="#F5A623"/>
</svg>
